<svg xmlns="http://www.w3.org/2000/svg" width="48" height="48" viewBox="0 0 48 48">
    <g data-name="그룹 129058" transform="translate(-42 -133)">
        <circle data-name="타원 167" cx="24" cy="24" r="24" transform="translate(42 133)" style="fill:#e3e3e3"/>
        <g data-name="그룹 30">
            <path data-name="패스 2466" d="M17.925 13.575a10.46 10.46 0 0 0-3.99-2.5 6.07 6.07 0 1 0-6.869 0A10.517 10.517 0 0 0 0 21h1.641a8.859 8.859 0 1 1 17.719 0H21a10.432 10.432 0 0 0-3.075-7.425zM10.5 10.5a4.43 4.43 0 1 1 4.43-4.43 4.435 4.435 0 0 1-4.43 4.43z" transform="translate(55.5 145.5)" style="fill:#fff"/>
        </g>
    </g>
</svg>
